<?xml version="1.0" encoding="utf-8"?>
<!-- Generator: Adobe Illustrator 24.0.0, SVG Export Plug-In . SVG Version: 6.00 Build 0)  -->
<svg version="1.1" id="Layer_1" xmlns="http://www.w3.org/2000/svg" xmlns:xlink="http://www.w3.org/1999/xlink" x="0px" y="0px"
	 viewBox="0 0 367.71 407.82" style="enable-background:new 0 0 367.71 407.82;" xml:space="preserve">
<style type="text/css">
	.st0{fill:#5CFFFF;}
	.st1{fill:#FF3823;}
	.st2{fill:none;stroke:#000000;stroke-width:8;stroke-linecap:round;stroke-miterlimit:10;}
</style>
<g>
	<g>
		<g>
			<path class="st0" d="M250.73,102.96H139.34v59.94h102.57c7.55,0,13.18,1.69,16.9,5.08c3.72,3.39,5.58,7.85,5.58,13.4
				c0,5.55-1.83,10.07-5.49,13.57c-3.66,3.5-9.32,5.24-16.98,5.24H139.34v69.43h115.22c7.77,0,13.62,1.81,17.57,5.41
				c3.94,3.61,5.91,8.41,5.91,14.4c0,5.77-1.97,10.46-5.91,14.07c-3.94,3.61-9.8,5.41-17.57,5.41H120.19
				c-10.77,0-18.51-2.39-23.23-7.16c-4.72-4.77-7.08-12.49-7.08-23.14V95.13c0-7.1,1.05-12.9,3.16-17.4
				c2.11-4.5,5.41-7.77,9.91-9.82c4.5-2.05,10.24-3.08,17.23-3.08h130.54c7.88,0,13.74,1.75,17.57,5.25
				c3.83,3.5,5.74,8.08,5.74,13.74c0,5.77-1.92,10.41-5.74,13.9C264.47,101.21,258.61,102.96,250.73,102.96z"/>
		</g>
		<g>
			<path class="st1" d="M264.79,118.96H153.4v59.94h102.57c7.55,0,13.18,1.69,16.9,5.08c3.72,3.39,5.58,7.85,5.58,13.4
				c0,5.55-1.83,10.07-5.49,13.57c-3.66,3.5-9.32,5.24-16.98,5.24H153.4v69.43h115.22c7.77,0,13.62,1.81,17.57,5.41
				c3.94,3.61,5.91,8.41,5.91,14.4c0,5.77-1.97,10.46-5.91,14.07c-3.94,3.61-9.8,5.41-17.57,5.41H134.25
				c-10.77,0-18.51-2.39-23.23-7.16c-4.72-4.77-7.08-12.49-7.08-23.14V111.13c0-7.1,1.05-12.9,3.16-17.4
				c2.11-4.5,5.41-7.77,9.91-9.82c4.5-2.05,10.24-3.08,17.23-3.08h130.54c7.88,0,13.74,1.75,17.57,5.25
				c3.83,3.5,5.74,8.08,5.74,13.74c0,5.77-1.92,10.41-5.74,13.9C278.53,117.21,272.67,118.96,264.79,118.96z"/>
		</g>
		<g>
			<path d="M260.51,112.04H149.45v59.77h102.27c7.53,0,13.14,1.69,16.85,5.06c3.71,3.38,5.56,7.83,5.56,13.36
				c0,5.54-1.83,10.04-5.48,13.53s-9.3,5.23-16.93,5.23H149.45v69.23h114.88c7.75,0,13.58,1.8,17.51,5.4
				c3.93,3.6,5.89,8.38,5.89,14.36c0,5.76-1.97,10.43-5.89,14.03c-3.93,3.6-9.77,5.4-17.51,5.4H130.35
				c-10.74,0-18.46-2.38-23.16-7.14c-4.71-4.76-7.06-12.45-7.06-23.08V104.23c0-7.08,1.05-12.87,3.15-17.35
				c2.1-4.48,5.4-7.75,9.88-9.79c4.48-2.05,10.21-3.07,17.18-3.07h130.16c7.86,0,13.7,1.74,17.51,5.23s5.73,8.05,5.73,13.7
				c0,5.76-1.91,10.38-5.73,13.86S268.37,112.04,260.51,112.04z"/>
		</g>
	</g>
	<g>
		<line class="st2" x1="319.9" y1="350.13" x2="319.9" y2="286.12"/>
		<line class="st2" x1="319.59" y1="350.13" x2="255.58" y2="350.13"/>
	</g>
	<g>
		<line class="st2" x1="68.13" y1="48.82" x2="68.13" y2="112.83"/>
		<line class="st2" x1="68.44" y1="48.82" x2="132.45" y2="48.82"/>
	</g>
</g>
</svg>
